HIERARCHY
ROOT Hips
{
	OFFSET	0.00	0.00	0.00
	CHANNELS 6 Xposition Yposition Zposition Zrotation Xrotation Yrotation
	JOINT LeftUpLeg
	{
		OFFSET	 0.126116	-0.014019	-0.065224
		CHANNELS 3 Zrotation Xrotation Yrotation
		JOINT LeftLeg
		{
			OFFSET	 0.000000	 0.000000	 0.569914
			CHANNELS 3 Zrotation Xrotation Yrotation
			JOINT LeftFoot
			{
				OFFSET	 0.000000	 0.000000	 0.544423
				CHANNELS 3 Zrotation Xrotation Yrotation
				JOINT LeftToeBase
				{
					OFFSET	 0.000000	 0.000000	 0.207117
					CHANNELS 3 Zrotation Xrotation Yrotation
					End Site
					{
						OFFSET	 0.000000	 0.000000	 0.207117
					}
				}
			}
		}
	}
	JOINT RightUpLeg
	{
		OFFSET	-0.124023	-0.008373	-0.065224
		CHANNELS 3 Zrotation Xrotation Yrotation
		JOINT RightLeg
		{
			OFFSET	 0.000000	 0.000000	 0.570047
			CHANNELS 3 Zrotation Xrotation Yrotation
			JOINT RightFoot
			{
				OFFSET	 0.000000	 0.000000	 0.544354
				CHANNELS 3 Zrotation Xrotation Yrotation
				JOINT RightToeBase
				{
					OFFSET	 0.000000	 0.000000	 0.207540
					CHANNELS 3 Zrotation Xrotation Yrotation
					End Site
					{
						OFFSET	 0.000000	 0.000000	 0.207540
					}
				}
			}
		}
	}
	JOINT Spine
	{
		OFFSET	 0.000184	-0.007763	 0.117403
		CHANNELS 3 Zrotation Xrotation Yrotation
		JOINT Spine1
		{
			OFFSET	 0.000000	 0.000000	 0.137269
			CHANNELS 3 Zrotation Xrotation Yrotation
			JOINT Spine2
			{
				OFFSET	 0.000000	 0.000000	 0.156879
				CHANNELS 3 Zrotation Xrotation Yrotation
				JOINT LeftShoulder
				{
					OFFSET	 0.080501	-0.002496	 0.160144
					CHANNELS 3 Zrotation Xrotation Yrotation
					JOINT LeftArm
					{
						OFFSET	 0.000000	 0.000000	 0.164363
						CHANNELS 3 Zrotation Xrotation Yrotation
						JOINT LeftForeArm
						{
							OFFSET	 0.000000	 0.000000	 0.364576
							CHANNELS 3 Zrotation Xrotation Yrotation
							JOINT LeftHand
							{
								OFFSET	 0.000000	 0.000000	 0.360812
								CHANNELS 3 Zrotation Xrotation Yrotation
								JOINT LeftHandIndex1
								{
									OFFSET	 0.000000	 0.000000	 0.086006
									CHANNELS 3 Zrotation Xrotation Yrotation
									JOINT LeftHandIndex2
									{
										OFFSET	 0.000000	 0.000000	 0.047236
										CHANNELS 3 Zrotation Xrotation Yrotation
										JOINT LeftHandIndex3
										{
											OFFSET	-0.004284	-0.000551	 0.038166
											CHANNELS 3 Zrotation Xrotation Yrotation
											End Site
											{
												OFFSET	-0.004284	-0.000551	 0.038166
											}
										}
									}
								}
							}
						}
					}
				}
				JOINT Neck
				{
					OFFSET	 0.000000	 0.000000	 0.176489
					CHANNELS 3 Zrotation Xrotation Yrotation
					JOINT Head
					{
						OFFSET	 0.000000	-0.001747	 0.077940
						CHANNELS 3 Zrotation Xrotation Yrotation
						End Site
						{
							OFFSET	 0.000000	-0.001747	 0.077940
						}
					}
				}
				JOINT RightShoulder
				{
					OFFSET	-0.080363	 0.000306	 0.159706
					CHANNELS 3 Zrotation Xrotation Yrotation
					JOINT RightArm
					{
						OFFSET	 0.000000	 0.000000	 0.164196
						CHANNELS 3 Zrotation Xrotation Yrotation
						JOINT RightForeArm
						{
							OFFSET	 0.000000	 0.000000	 0.365611
							CHANNELS 3 Zrotation Xrotation Yrotation
							JOINT RightHand
							{
								OFFSET	 0.000000	 0.000000	 0.360648
								CHANNELS 3 Zrotation Xrotation Yrotation
								JOINT RightHandIndex1
								{
									OFFSET	 0.000000	 0.000000	 0.069977
									CHANNELS 3 Zrotation Xrotation Yrotation
									JOINT RightHandIndex2
									{
										OFFSET	 0.000000	 0.000000	 0.052305
										CHANNELS 3 Zrotation Xrotation Yrotation
										JOINT RightHandIndex3
										{
											OFFSET	 0.009002	-0.000782	 0.042196
											CHANNELS 3 Zrotation Xrotation Yrotation
											End Site
											{
												OFFSET	 0.009002	-0.000782	 0.042196
											}
										}
									}
								}
							}
						}
					}
				}
			}
		}
	}
}
MOTION
Frames:    6
Frame Time: 0.03333334
-0.000273	 0.044583	 1.277494	-0.068197	 2.778398	 0.460945	-2.365741	-5.684605	 178.800800	 2.208151	-12.463550	 0.566837	-0.079855	 70.610950	-0.031176	-2.385833	 28.452750	 0.000004	 9.885303	-5.254270	-178.882600	-0.789465	-11.017180	 0.834153	 5.206838	 69.639920	 1.115036	 2.384659	 28.388700	-0.000001	-7.051905	 6.579056	 1.431582	-3.116477	-3.930930	-0.264156	 9.607949	 6.890128	-0.709656	-91.090340	 69.251390	-177.646700	-7.797909	 2.960347	-10.873240	 24.430210	-5.840852	-22.635660	-10.376650	-31.717670	-5.398480	-2.027600	 6.559038	 9.033609	-5.188889	 0.308190	 3.541030	-5.234859	 0.342567	 0.430617	 4.536336	 19.188620	-7.131269	 4.822100	-14.743060	 2.221178	 88.906670	 67.945530	 177.149800	 8.470212	 7.346587	 4.498334	-25.215230	-10.419400	 30.053180	 8.092104	-31.454940	 7.292621	 1.803333	 3.979147	-15.098590	 4.898592	 3.004813	-9.310344	 5.224449	 0.395017	 2.014677
-0.000738	 0.048188	 1.278612	-0.013233	 3.547898	 0.503851	-2.423273	-6.551367	 178.664500	 2.152937	-12.129120	 0.540237	-0.204398	 70.061830	 0.156401	-2.385833	 28.452750	 0.000004	 9.753538	-5.974184	-178.749100	-0.785826	-10.412070	 0.789520	 5.137324	 68.942670	 1.166163	 2.384659	 28.388700	-0.000001	-7.653186	 7.020508	 1.530777	-3.160916	-5.248864	-0.393656	 9.564493	 8.515382	-0.890397	-90.954120	 68.324660	-177.363300	-6.740736	 3.663688	-11.812060	 23.538750	-5.862350	-24.395590	-10.299340	-35.384470	-6.649220	-2.027600	 6.559038	 9.033609	-5.188889	 0.308190	 3.541030	-5.234859	 0.342567	 0.430617	 4.706375	 21.813400	-7.930345	 5.116004	-16.875670	 2.340318	 88.684500	 66.413980	 176.753100	 7.322901	 7.606245	 5.687533	-24.835240	-10.464600	 30.997860	 7.441271	-34.511430	 7.538640	 1.803333	 3.979147	-15.098590	 4.898592	 3.004813	-9.310344	 5.224449	 0.395017	 2.014677
-0.001492	 0.054296	 1.279517	 0.088044	 4.761830	 0.587059	-2.538023	-8.239356	 178.423200	 2.182342	-12.206250	 0.545599	-0.471483	 69.587790	 0.433598	-2.385833	 28.452760	 0.000004	 9.528934	-7.416593	-178.586300	-0.849794	-10.031180	 0.749740	 5.210829	 68.143030	 1.130015	 2.384659	 28.388700	-0.000001	-8.328293	 7.615820	 1.622427	-3.157631	-6.833939	-0.522461	 9.256338	 10.484660	-1.099663	-90.824310	 67.208980	-177.157000	-5.092851	 5.423834	-13.657160	 22.202250	-5.531255	-25.957020	-11.222640	-40.406930	-9.077050	-2.027600	 6.559038	 9.033609	-5.188889	 0.308190	 3.541030	-5.234859	 0.342567	 0.430617	 4.708498	 24.784080	-8.733502	 5.427021	-19.432220	 2.518798	 88.424340	 64.356550	 176.386000	 5.545599	 8.671587	 7.569240	-24.183270	-10.194980	 31.763480	 6.983210	-38.718140	 8.382083	 1.803333	 3.979147	-15.098590	 4.898592	 3.004813	-9.310344	 5.224449	 0.395017	 2.014677
-0.002337	 0.062155	 1.280513	 0.216549	 6.365634	 0.708540	-2.765727	-10.485290	 178.088700	 2.138770	-12.371860	 0.547835	-0.752523	 69.078600	 0.759492	-2.385832	 28.452790	-0.000001	 9.111661	-9.278183	-178.406700	-1.351440	-9.438860	 0.632955	 5.659488	 67.183680	 1.079949	 2.384659	 28.388700	-0.000001	-8.880992	 8.230256	 1.625135	-3.084205	-8.450839	-0.568652	 8.640261	 12.351950	-1.338391	-90.840000	 65.665790	-177.430900	-3.030815	 6.823551	-15.569790	 19.814010	-4.538138	-27.271320	-14.306650	-45.174090	-12.861090	-2.027600	 6.559038	 9.033609	-5.188889	 0.308190	 3.541030	-5.234859	 0.342567	 0.430617	 4.298627	 26.416650	-8.828888	 5.379827	-21.074460	 2.423640	 88.385600	 62.062100	 176.620500	 3.015937	 9.409897	 9.277580	-22.903600	-9.485538	 32.552100	 7.353679	-42.707150	 10.341710	 1.803333	 3.979147	-15.098590	 4.898592	 3.004813	-9.310344	 5.224449	 0.395017	 2.014677
-0.002683	 0.070629	 1.280527	 0.473730	 8.111619	 0.727223	-3.132822	-13.283930	 177.849200	 2.054807	-13.232790	 0.566041	-0.867946	 68.668530	 0.984627	-2.385833	 28.452760	 0.000004	 8.805693	-11.914490	-178.132900	-1.474361	-10.083850	 0.643769	 6.178144	 66.812030	 0.689114	 2.384659	 28.388700	-0.000001	-9.338303	 8.636202	 1.564249	-2.954820	-10.121070	-0.608676	 7.936900	 13.755490	-1.374753	-91.329300	 65.037830	-178.810500	-1.283139	 8.513142	-15.045280	 18.249430	-4.104899	-29.806930	-17.654080	-48.419200	-16.656070	-2.027600	 6.559038	 9.033609	-5.188889	 0.308190	 3.541030	-5.234859	 0.342567	 0.430617	 3.866373	 26.846310	-8.769950	 5.107291	-21.878760	 2.350237	 88.834750	 61.216080	 177.776000	 0.474897	 11.006090	 9.013044	-21.868560	-9.197684	 34.085850	 8.076016	-45.940540	 12.353460	 1.803333	 3.979147	-15.098590	 4.898592	 3.004813	-9.310344	 5.224449	 0.395017	 2.014677
-0.002978	 0.081851	 1.280279	 0.737350	 10.299110	 0.680241	-3.534973	-16.732440	 177.606600	 2.015949	-14.086870	 0.592388	-1.051606	 68.084850	 1.240248	-2.385833	 28.452760	 0.000004	 8.498084	-15.282780	-177.725700	-1.669021	-10.884320	 0.657380	 6.781032	 66.352180	 0.208287	 2.384659	 28.388700	-0.000001	-9.788365	 9.089461	 1.516772	-2.677000	-11.406870	-0.589298	 7.006602	 14.848210	-1.184427	-92.064110	 64.904890	 179.238300	 0.814517	 11.214510	-14.707930	 17.274580	-3.857285	-32.302560	-21.320640	-51.421910	-20.847810	-2.027600	 6.559038	 9.033609	-5.188889	 0.308190	 3.541030	-5.234859	 0.342567	 0.430617	 3.400198	 26.249270	-8.856449	 4.576735	-22.135170	 2.162227	 89.537450	 60.589900	 179.437800	-2.467275	 13.533390	 9.070755	-20.572430	-8.594471	 35.474220	 9.733829	-49.286370	 15.014270	 1.803333	 3.979147	-15.098590	 4.898592	 3.004813	-9.310344	 5.224449	 0.395017	 2.014677
